PathFileType	4	(X/Y/Z)	C:/Users/beibeiliu/ov580/test_trc/User2\sequence.30_training_dense_right.trc
DataRate	CameraRate	NumFrames	NumMarkers	Units	OrigDataRate	OrigDataStartFrame	OrigNumFrames
120	120	10	19	mm	120	76	302
Frame#	Time	ThumbCMC			ThumbMCP			ThumbIP			ThumbTip			IndexMCP			IndexPIP			IndexTip			MiddleMCP			MiddlePIP			MiddleTip			RingMCP			RingPIP			RingTip			PinkyMCP			PinkyPIP			PinkyTip			BackHand1			BackHand2			BackHand3	
		X0	Y0	Z0	X1	Y1	Z1	X2	Y2	Z2	X3	Y3	Z3	X4	Y4	Z4	X5	Y5	Z5	X6	Y6	Z6	X7	Y7	Z7	X8	Y8	Z8	X9	Y9	Z9	X10	Y10	Z10	X11	Y11	Z11	X12	Y12	Z12	X13	Y13	Z13	X14	Y14	Z14	X15	Y15	Z15	X16	Y16	Z16	X17	Y17	Z17	X18	Y18	Z18	
75	0.625	60.194	-59.8421	50.271	40.0187	-68.3323	29.228	25.2012	-77.5026	0.766395	14.6787	-85.5803	-24.6739	93.0357	-49.6107	-28.5898	98.6264	-51.6359	-54.8693	105.724	-52.9212	-80.3009	117.084	-50.3222	-28.8416	129.15	-55.9372	-60.3872	143.153	-60.8434	-89.2428	141.554	-60.5069	-22.6027	147.783	-64.7415	-42.516	158.773	-68.9512	-69.3441	155.497	-70.4998	2.88089	168.932	-75.9019	-17.6067	182.755	-75.2527	-40.956	130.789	-47.2052	33.0108	123.883	-41.405	67.079	90.489	-35.7147	40.614	
76	0.633333	63.4008	-55.9532	51.1527	43.331	-63.7897	23.6024	30.1865	-74.0238	-2.76934	16.9401	-82.4741	-23.6261	98.3923	-46.8234	-25.2425	100.121	-49.2456	-54.7539	114.491	-52.8043	-82.7353	122.292	-47.7757	-31.2725	135.466	-53.9125	-59.4708	145.271	-59.2113	-86.2642	141.739	-57.2308	-20.4133	154.31	-62.5123	-46.2778	162.785	-66.3438	-69.7311	157.258	-68.0065	0.793808	170.949	-73.0273	-19.1432	183.734	-71.2613	-42.951	130.505	-44.8746	36.3873	130.241	-36.4974	63.7958	95.3929	-33.5205	45.1473	
77	0.641667	63.4461	-52.129	50.4279	46.2704	-62.0231	27.9093	30.4359	-69.7584	-1.48727	18.752	-79.529	-23.3146	94.9101	-43.0342	-31.6765	101.073	-47.8238	-56.321	113.034	-50.3768	-81.0266	123.739	-45.8545	-32.5405	130.889	-50.7528	-60.0515	147.008	-55.7237	-87.1551	146.735	-54.8006	-24.7747	149.992	-58.6293	-45.9185	158.812	-60.3576	-70.7442	161.511	-67.112	0.465106	174.283	-71.6172	-22.0569	187.476	-70.2794	-44.3361	132.566	-43.4318	32.0004	132.028	-36.992	62.6575	99.5279	-32.4476	42.3025	
78	0.65	61.4476	-50.0804	54.4809	40.8655	-58.8335	32.7774	25.1968	-66.82	-3.12706	19.5433	-77.1215	-23.523	91.8805	-41.94	-25.6342	93.3923	-43.3762	-55.0337	104.967	-46.191	-80.3175	117.328	-41.1	-28.8619	128.982	-45.742	-59.0517	137.666	-48.511	-87.8551	140.95	-49.6238	-23.1622	149.865	-51.391	-47.7106	154.827	-53.1698	-74.1785	158.424	-63.2171	-4.43156	169.723	-67.1645	-21.674	178.985	-62.9487	-43.8046	129.815	-38.6087	32.6942	126.461	-31.6863	65.2557	96.3493	-30.0341	42.4063	
79	0.658333	57.5236	-50.3469	57.01	35.1635	-56.7208	36.2853	22.1361	-66.9693	9.6765	13.7973	-75.0536	-15.2087	79.3471	-37.9444	-27.2028	85.1844	-39.811	-54.2021	85.9095	-41.9282	-79.9027	105.077	-36.3945	-28.6321	112.96	-39.0953	-58.5011	120.469	-40.2258	-93.1434	127.823	-43.5614	-19.75	135.82	-43.0449	-48.5012	142.163	-44.2247	-77.4378	151.408	-57.3628	-4.06906	156.842	-59.1911	-26.5456	172.377	-55.0062	-47.291	123.564	-36.372	34.6555	121.834	-30.155	63.515	88.8411	-29.4483	47.2724	
80	0.666667	52.2074	-50.7235	64.8678	27.4939	-57.317	42.3478	10.9386	-66.1636	16.0313	-2.27908	-74.6769	-4.82149	67.6794	-35.7201	-21.53	63.9321	-36.6466	-48.6526	65.2458	-38.6055	-75.7556	91.0699	-34.5498	-27.6149	95.0195	-34.6911	-57.818	94.3743	-33.6491	-88.2029	114.365	-38.4711	-18.9881	117.265	-37.8314	-46.0047	119.668	-35.2156	-75.9181	135.306	-52.0654	-5.45555	146.172	-52.5763	-30.5032	155.282	-48.1904	-54.31	113.192	-34.7328	35.1045	116.367	-30.4944	65.0013	80.8488	-29.7503	51.3018	
81	0.675	45.7467	-53.1886	70.7216	20.3647	-59.2975	52.5709	0.0664768	-66.0821	26.2647	-8.75315	-74.6076	5.37777	47.038	-35.5371	-14.7551	42.3164	-35.9622	-41.7809	39.6436	-35.3637	-70.3997	74.3389	-32.0286	-26.6484	71.7456	-32.3647	-57.3501	66.8795	-28.8792	-85.1689	98.5427	-35.4063	-20.228	95.4523	-32.1519	-47.1902	98.4464	-29.1145	-75.4438	121.656	-49.2254	-8.50446	129.002	-48.2047	-32.5802	132.358	-41.6092	-54.8667	104.426	-35.2644	37.4274	112.86	-29.9122	66.4951	75.9305	-29.9074	53.687	
82	0.683333	36.5051	-53.8102	76.4211	12.2079	-59.6336	60.4206	-7.82553	-66.4986	33.2202	-22.459	-74.6583	14.8262	34.5637	-36.2115	-10.1976	25.2519	-35.2935	-32.9279	20.6344	-35.4279	-58.4057	55.6966	-31.6364	-19.087	47.7413	-30.1636	-45.3966	43.3359	-24.4555	-81.0016	80.2838	-34.1454	-19.3573	74.7369	-31.2563	-45.671	72.4747	-27.9189	-70.1735	105.871	-48.3913	-6.44993	110.39	-46.7266	-33.8356	109.572	-40.307	-55.178	94.6585	-34.1565	32.8977	101.729	-28.6729	64.048	64.4361	-30.9017	55.257	
83	0.691667	35.2454	-54.8693	81.6433	4.02463	-59.8802	67.218	-17.6571	-66.2194	44.644	-33.9686	-73.6312	25.4949	22.296	-35.2135	-0.871253	6.41994	-33.9652	-26.5028	-3.84878	-33.3929	-51.6809	44.3274	-30.4068	-14.0282	33.6851	-29.3732	-41.3779	24.3541	-24.1262	-70.9201	65.6442	-35.519	-13.0706	61.7774	-32.8032	-38.867	50.1705	-26.1191	-67.3443	91.9822	-48.1841	-10.5248	90.3859	-46.695	-36.0698	89.6562	-40.3554	-55.0936	87.941	-33.5353	35.6367	99.6497	-31.094	68.0219	58.2659	-28.977	60.0813	
84	0.7	30.3179	-55.5311	85.3581	2.51372	-60.2035	70.9257	-25.609	-66.194	48.745	-39.0459	-74.3256	33.2184	7.03087	-34.2201	5.38787	-3.37941	-34.5885	-20.7509	-15.9434	-34.1142	-45.1481	31.723	-30.9855	-8.00948	18.8916	-27.0467	-39.3375	11.0393	-22.3254	-68.0106	53.3114	-33.5394	-13.5481	52.1234	-31.1898	-38.4475	36.227	-27.278	-62.1723	84.3123	-48.7521	-4.71716	83.0991	-47.214	-31.7824	75.2434	-41.4598	-53.2749	75.0387	-33.166	37.1719	91.2766	-30.3372	66.5693	53.106	-30.5006	61.7149	
